<mxfile host="app.diagrams.net" agent="Mozilla/5.0 (Windows NT 10.0; Win64; x64) AppleWebKit/537.36 (KHTML, like Gecko) Chrome/128.0.0.0 Safari/537.36" version="24.7.7" pages="6">
  <diagram name="Page-1" id="vEKiDAYMh9sC_zGV0o4M">
    <mxGraphModel dx="1050" dy="1691" grid="1" gridSize="10" guides="1" tooltips="1" connect="1" arrows="1" fold="1" page="1" pageScale="1" pageWidth="827" pageHeight="1169" math="0" shadow="0">
      <root>
        <mxCell id="0" />
        <mxCell id="1" parent="0" />
        <mxCell id="sCH3POEfb6mqp0pHk37S-7" value="&lt;font style=&quot;font-size: 16px;&quot;&gt;&lt;b&gt;s&lt;/b&gt;&lt;/font&gt;" style="text;html=1;align=center;verticalAlign=middle;whiteSpace=wrap;rounded=0;fontSize=16;textShadow=1;aspect=fixed;fontFamily=HarmonyOS Sans;" vertex="1" parent="1">
          <mxGeometry x="75" y="-5" width="125" height="50" as="geometry" />
        </mxCell>
        <mxCell id="sCH3POEfb6mqp0pHk37S-8" value="&lt;font face=&quot;HarmonyOS Sans&quot; style=&quot;font-size: 16px;&quot;&gt;(&lt;/font&gt;" style="rounded=0;whiteSpace=wrap;html=1;strokeWidth=2;fillWeight=4;hachureGap=8;hachureAngle=45;fillColor=#f8cecc;strokeColor=#b85450;" vertex="1" parent="1">
          <mxGeometry x="200" width="40" height="40" as="geometry" />
        </mxCell>
        <mxCell id="sCH3POEfb6mqp0pHk37S-11" value="&lt;span style=&quot;font-size: 16px;&quot;&gt;&lt;font face=&quot;HarmonyOS Sans&quot;&gt;)&lt;/font&gt;&lt;/span&gt;" style="rounded=0;whiteSpace=wrap;html=1;strokeWidth=2;fillWeight=4;hachureGap=8;hachureAngle=45;fillColor=#dae8fc;strokeColor=#6c8ebf;" vertex="1" parent="1">
          <mxGeometry x="240" width="40" height="40" as="geometry" />
        </mxCell>
        <mxCell id="sCH3POEfb6mqp0pHk37S-12" value="&lt;font face=&quot;HarmonyOS Sans&quot; style=&quot;font-size: 16px;&quot;&gt;{&lt;/font&gt;" style="rounded=0;whiteSpace=wrap;html=1;strokeWidth=2;fillWeight=4;hachureGap=8;hachureAngle=45;fillColor=#dae8fc;strokeColor=#6c8ebf;" vertex="1" parent="1">
          <mxGeometry x="280" width="40" height="40" as="geometry" />
        </mxCell>
        <mxCell id="sCH3POEfb6mqp0pHk37S-13" value="&lt;font face=&quot;HarmonyOS Sans&quot; style=&quot;font-size: 16px;&quot;&gt;}&lt;/font&gt;" style="rounded=0;whiteSpace=wrap;html=1;strokeWidth=2;fillWeight=4;hachureGap=8;hachureAngle=45;fillColor=#dae8fc;strokeColor=#6c8ebf;" vertex="1" parent="1">
          <mxGeometry x="320" width="40" height="40" as="geometry" />
        </mxCell>
        <mxCell id="sCH3POEfb6mqp0pHk37S-14" value="&lt;font face=&quot;HarmonyOS Sans&quot; style=&quot;font-size: 16px;&quot;&gt;[&lt;/font&gt;" style="rounded=0;whiteSpace=wrap;html=1;strokeWidth=2;fillWeight=4;hachureGap=8;hachureAngle=45;fillColor=#dae8fc;strokeColor=#6c8ebf;" vertex="1" parent="1">
          <mxGeometry x="360" width="40" height="40" as="geometry" />
        </mxCell>
        <mxCell id="sCH3POEfb6mqp0pHk37S-15" value="&lt;font face=&quot;HarmonyOS Sans&quot; style=&quot;font-size: 16px;&quot;&gt;]&lt;/font&gt;" style="rounded=0;whiteSpace=wrap;html=1;strokeWidth=2;fillWeight=4;hachureGap=8;hachureAngle=45;fillColor=#dae8fc;strokeColor=#6c8ebf;" vertex="1" parent="1">
          <mxGeometry x="400" width="40" height="40" as="geometry" />
        </mxCell>
        <mxCell id="sCH3POEfb6mqp0pHk37S-19" value="&lt;b&gt;遍历字符串，遇到左括号，压入栈中&lt;/b&gt;" style="text;html=1;align=center;verticalAlign=middle;whiteSpace=wrap;rounded=0;fontSize=16;textShadow=1;aspect=fixed;fontFamily=HarmonyOS Sans;" vertex="1" parent="1">
          <mxGeometry x="240" y="-120" width="160" height="64" as="geometry" />
        </mxCell>
        <mxCell id="6yR5DXPYEWaGY2ek5dSU-8" value="&lt;font style=&quot;font-size: 16px;&quot;&gt;&lt;b&gt;stack&lt;/b&gt;&lt;/font&gt;" style="text;html=1;align=center;verticalAlign=middle;whiteSpace=wrap;rounded=0;fontSize=16;textShadow=1;aspect=fixed;fontFamily=HarmonyOS Sans;" vertex="1" parent="1">
          <mxGeometry x="75" y="80" width="125" height="50" as="geometry" />
        </mxCell>
        <mxCell id="6yR5DXPYEWaGY2ek5dSU-9" value="&lt;font face=&quot;HarmonyOS Sans&quot; style=&quot;font-size: 16px;&quot;&gt;(&lt;/font&gt;" style="rounded=0;whiteSpace=wrap;html=1;strokeWidth=2;fillWeight=4;hachureGap=8;hachureAngle=45;fillColor=#f5f5f5;strokeColor=#666666;fontColor=#333333;" vertex="1" parent="1">
          <mxGeometry x="200" y="85" width="40" height="40" as="geometry" />
        </mxCell>
        <mxCell id="6yR5DXPYEWaGY2ek5dSU-10" value="" style="rounded=0;whiteSpace=wrap;html=1;strokeWidth=2;fillWeight=4;hachureGap=8;hachureAngle=45;fillColor=none;strokeColor=#6c8ebf;" vertex="1" parent="1">
          <mxGeometry x="240" y="85" width="40" height="40" as="geometry" />
        </mxCell>
        <mxCell id="6yR5DXPYEWaGY2ek5dSU-11" value="" style="rounded=0;whiteSpace=wrap;html=1;strokeWidth=2;fillWeight=4;hachureGap=8;hachureAngle=45;fillColor=none;strokeColor=#6c8ebf;" vertex="1" parent="1">
          <mxGeometry x="280" y="85" width="40" height="40" as="geometry" />
        </mxCell>
        <mxCell id="6yR5DXPYEWaGY2ek5dSU-12" value="" style="rounded=0;whiteSpace=wrap;html=1;strokeWidth=2;fillWeight=4;hachureGap=8;hachureAngle=45;fillColor=none;strokeColor=#6c8ebf;" vertex="1" parent="1">
          <mxGeometry x="320" y="85" width="40" height="40" as="geometry" />
        </mxCell>
        <mxCell id="6yR5DXPYEWaGY2ek5dSU-13" value="" style="rounded=0;whiteSpace=wrap;html=1;strokeWidth=2;fillWeight=4;hachureGap=8;hachureAngle=45;fillColor=none;strokeColor=#6c8ebf;" vertex="1" parent="1">
          <mxGeometry x="360" y="85" width="40" height="40" as="geometry" />
        </mxCell>
        <mxCell id="6yR5DXPYEWaGY2ek5dSU-14" value="" style="rounded=0;whiteSpace=wrap;html=1;strokeWidth=2;fillWeight=4;hachureGap=8;hachureAngle=45;fillColor=none;strokeColor=#6c8ebf;" vertex="1" parent="1">
          <mxGeometry x="400" y="85" width="40" height="40" as="geometry" />
        </mxCell>
        <mxCell id="6yR5DXPYEWaGY2ek5dSU-15" value="" style="endArrow=classic;html=1;rounded=0;strokeWidth=2;entryX=0.5;entryY=0;entryDx=0;entryDy=0;strokeColor=#FF8000;" edge="1" parent="1" target="sCH3POEfb6mqp0pHk37S-8">
          <mxGeometry width="50" height="50" relative="1" as="geometry">
            <mxPoint x="220" y="-50" as="sourcePoint" />
            <mxPoint x="440" y="50" as="targetPoint" />
          </mxGeometry>
        </mxCell>
      </root>
    </mxGraphModel>
  </diagram>
  <diagram id="uztaFPQ3Z_jNgQ-NMhBg" name="Page-2">
    <mxGraphModel dx="1050" dy="1691" grid="1" gridSize="10" guides="1" tooltips="1" connect="1" arrows="1" fold="1" page="1" pageScale="1" pageWidth="827" pageHeight="1169" math="0" shadow="0">
      <root>
        <mxCell id="0" />
        <mxCell id="1" parent="0" />
        <mxCell id="TGes_u2ND6eKQIj4ODJA-1" value="&lt;font style=&quot;font-size: 16px;&quot;&gt;&lt;b&gt;s&lt;/b&gt;&lt;/font&gt;" style="text;html=1;align=center;verticalAlign=middle;whiteSpace=wrap;rounded=0;fontSize=16;textShadow=1;aspect=fixed;fontFamily=HarmonyOS Sans;" vertex="1" parent="1">
          <mxGeometry x="75" y="-5" width="125" height="50" as="geometry" />
        </mxCell>
        <mxCell id="TGes_u2ND6eKQIj4ODJA-2" value="&lt;font face=&quot;HarmonyOS Sans&quot; style=&quot;font-size: 16px;&quot;&gt;(&lt;/font&gt;" style="rounded=0;whiteSpace=wrap;html=1;strokeWidth=2;fillWeight=4;hachureGap=8;hachureAngle=45;fillColor=#dae8fc;strokeColor=#6c8ebf;" vertex="1" parent="1">
          <mxGeometry x="200" width="40" height="40" as="geometry" />
        </mxCell>
        <mxCell id="TGes_u2ND6eKQIj4ODJA-3" value="&lt;span style=&quot;font-size: 16px;&quot;&gt;&lt;font face=&quot;HarmonyOS Sans&quot;&gt;)&lt;/font&gt;&lt;/span&gt;" style="rounded=0;whiteSpace=wrap;html=1;strokeWidth=2;fillWeight=4;hachureGap=8;hachureAngle=45;fillColor=#f8cecc;strokeColor=#b85450;" vertex="1" parent="1">
          <mxGeometry x="240" width="40" height="40" as="geometry" />
        </mxCell>
        <mxCell id="TGes_u2ND6eKQIj4ODJA-4" value="&lt;font face=&quot;HarmonyOS Sans&quot; style=&quot;font-size: 16px;&quot;&gt;{&lt;/font&gt;" style="rounded=0;whiteSpace=wrap;html=1;strokeWidth=2;fillWeight=4;hachureGap=8;hachureAngle=45;fillColor=#dae8fc;strokeColor=#6c8ebf;" vertex="1" parent="1">
          <mxGeometry x="280" width="40" height="40" as="geometry" />
        </mxCell>
        <mxCell id="TGes_u2ND6eKQIj4ODJA-5" value="&lt;font face=&quot;HarmonyOS Sans&quot; style=&quot;font-size: 16px;&quot;&gt;}&lt;/font&gt;" style="rounded=0;whiteSpace=wrap;html=1;strokeWidth=2;fillWeight=4;hachureGap=8;hachureAngle=45;fillColor=#dae8fc;strokeColor=#6c8ebf;" vertex="1" parent="1">
          <mxGeometry x="320" width="40" height="40" as="geometry" />
        </mxCell>
        <mxCell id="TGes_u2ND6eKQIj4ODJA-6" value="&lt;font face=&quot;HarmonyOS Sans&quot; style=&quot;font-size: 16px;&quot;&gt;[&lt;/font&gt;" style="rounded=0;whiteSpace=wrap;html=1;strokeWidth=2;fillWeight=4;hachureGap=8;hachureAngle=45;fillColor=#dae8fc;strokeColor=#6c8ebf;" vertex="1" parent="1">
          <mxGeometry x="360" width="40" height="40" as="geometry" />
        </mxCell>
        <mxCell id="TGes_u2ND6eKQIj4ODJA-7" value="&lt;font face=&quot;HarmonyOS Sans&quot; style=&quot;font-size: 16px;&quot;&gt;]&lt;/font&gt;" style="rounded=0;whiteSpace=wrap;html=1;strokeWidth=2;fillWeight=4;hachureGap=8;hachureAngle=45;fillColor=#dae8fc;strokeColor=#6c8ebf;" vertex="1" parent="1">
          <mxGeometry x="400" width="40" height="40" as="geometry" />
        </mxCell>
        <mxCell id="TGes_u2ND6eKQIj4ODJA-8" value="&lt;b&gt;遍历字符串，遇到右括号，出栈检查是否匹配，匹配则继续&lt;/b&gt;" style="text;html=1;align=center;verticalAlign=middle;whiteSpace=wrap;rounded=0;fontSize=16;textShadow=1;aspect=fixed;fontFamily=HarmonyOS Sans;" vertex="1" parent="1">
          <mxGeometry x="240" y="-120" width="160" height="64" as="geometry" />
        </mxCell>
        <mxCell id="TGes_u2ND6eKQIj4ODJA-9" value="&lt;font style=&quot;font-size: 16px;&quot;&gt;&lt;b&gt;stack&lt;/b&gt;&lt;/font&gt;" style="text;html=1;align=center;verticalAlign=middle;whiteSpace=wrap;rounded=0;fontSize=16;textShadow=1;aspect=fixed;fontFamily=HarmonyOS Sans;" vertex="1" parent="1">
          <mxGeometry x="75" y="80" width="125" height="50" as="geometry" />
        </mxCell>
        <mxCell id="TGes_u2ND6eKQIj4ODJA-10" value="" style="rounded=0;whiteSpace=wrap;html=1;strokeWidth=2;fillWeight=4;hachureGap=8;hachureAngle=45;fillColor=none;strokeColor=#6c8ebf;" vertex="1" parent="1">
          <mxGeometry x="200" y="85" width="40" height="40" as="geometry" />
        </mxCell>
        <mxCell id="TGes_u2ND6eKQIj4ODJA-11" value="" style="rounded=0;whiteSpace=wrap;html=1;strokeWidth=2;fillWeight=4;hachureGap=8;hachureAngle=45;fillColor=none;strokeColor=#6c8ebf;" vertex="1" parent="1">
          <mxGeometry x="240" y="85" width="40" height="40" as="geometry" />
        </mxCell>
        <mxCell id="TGes_u2ND6eKQIj4ODJA-12" value="" style="rounded=0;whiteSpace=wrap;html=1;strokeWidth=2;fillWeight=4;hachureGap=8;hachureAngle=45;fillColor=none;strokeColor=#6c8ebf;" vertex="1" parent="1">
          <mxGeometry x="280" y="85" width="40" height="40" as="geometry" />
        </mxCell>
        <mxCell id="TGes_u2ND6eKQIj4ODJA-13" value="" style="rounded=0;whiteSpace=wrap;html=1;strokeWidth=2;fillWeight=4;hachureGap=8;hachureAngle=45;fillColor=none;strokeColor=#6c8ebf;" vertex="1" parent="1">
          <mxGeometry x="320" y="85" width="40" height="40" as="geometry" />
        </mxCell>
        <mxCell id="TGes_u2ND6eKQIj4ODJA-14" value="" style="rounded=0;whiteSpace=wrap;html=1;strokeWidth=2;fillWeight=4;hachureGap=8;hachureAngle=45;fillColor=none;strokeColor=#6c8ebf;" vertex="1" parent="1">
          <mxGeometry x="360" y="85" width="40" height="40" as="geometry" />
        </mxCell>
        <mxCell id="TGes_u2ND6eKQIj4ODJA-15" value="" style="rounded=0;whiteSpace=wrap;html=1;strokeWidth=2;fillWeight=4;hachureGap=8;hachureAngle=45;fillColor=none;strokeColor=#6c8ebf;" vertex="1" parent="1">
          <mxGeometry x="400" y="85" width="40" height="40" as="geometry" />
        </mxCell>
        <mxCell id="TGes_u2ND6eKQIj4ODJA-16" value="" style="endArrow=classic;html=1;rounded=0;strokeWidth=2;entryX=0.5;entryY=0;entryDx=0;entryDy=0;strokeColor=#FF8000;" edge="1" parent="1">
          <mxGeometry width="50" height="50" relative="1" as="geometry">
            <mxPoint x="259.5" y="-50" as="sourcePoint" />
            <mxPoint x="259.5" as="targetPoint" />
          </mxGeometry>
        </mxCell>
        <mxCell id="FO35LEMAm4XPNnEsU0zG-1" value="&lt;font style=&quot;font-size: 16px;&quot; face=&quot;HarmonyOS Sans&quot;&gt;(&lt;/font&gt;" style="rounded=0;whiteSpace=wrap;html=1;strokeWidth=2;fillWeight=4;hachureGap=8;hachureAngle=45;fillColor=#d5e8d4;strokeColor=#82b366;" vertex="1" parent="1">
          <mxGeometry x="540" y="40" width="40" height="40" as="geometry" />
        </mxCell>
        <mxCell id="VkieP88eU9x6X7O9Z6I8-1" value="&lt;b&gt;✔️&lt;/b&gt;" style="text;html=1;align=center;verticalAlign=middle;whiteSpace=wrap;rounded=0;fontSize=16;textShadow=1;aspect=fixed;fontFamily=HarmonyOS Sans;" vertex="1" parent="1">
          <mxGeometry x="497.5" width="125" height="50" as="geometry" />
        </mxCell>
      </root>
    </mxGraphModel>
  </diagram>
  <diagram id="70sN5f5FM1VD1_ZiHR0m" name="Page-3">
    <mxGraphModel dx="1050" dy="1691" grid="1" gridSize="10" guides="1" tooltips="1" connect="1" arrows="1" fold="1" page="1" pageScale="1" pageWidth="827" pageHeight="1169" math="0" shadow="0">
      <root>
        <mxCell id="0" />
        <mxCell id="1" parent="0" />
        <mxCell id="VUf-AXKMQu4PL6Nq-AgI-1" value="&lt;font style=&quot;font-size: 16px;&quot;&gt;&lt;b&gt;s&lt;/b&gt;&lt;/font&gt;" style="text;html=1;align=center;verticalAlign=middle;whiteSpace=wrap;rounded=0;fontSize=16;textShadow=1;aspect=fixed;fontFamily=HarmonyOS Sans;" vertex="1" parent="1">
          <mxGeometry x="75" y="-5" width="125" height="50" as="geometry" />
        </mxCell>
        <mxCell id="VUf-AXKMQu4PL6Nq-AgI-2" value="&lt;font face=&quot;HarmonyOS Sans&quot; style=&quot;font-size: 16px;&quot;&gt;(&lt;/font&gt;" style="rounded=0;whiteSpace=wrap;html=1;strokeWidth=2;fillWeight=4;hachureGap=8;hachureAngle=45;fillColor=#dae8fc;strokeColor=#6c8ebf;" vertex="1" parent="1">
          <mxGeometry x="200" width="40" height="40" as="geometry" />
        </mxCell>
        <mxCell id="VUf-AXKMQu4PL6Nq-AgI-3" value="&lt;span style=&quot;font-size: 16px;&quot;&gt;&lt;font face=&quot;HarmonyOS Sans&quot;&gt;)&lt;/font&gt;&lt;/span&gt;" style="rounded=0;whiteSpace=wrap;html=1;strokeWidth=2;fillWeight=4;hachureGap=8;hachureAngle=45;fillColor=#dae8fc;strokeColor=#6c8ebf;" vertex="1" parent="1">
          <mxGeometry x="240" width="40" height="40" as="geometry" />
        </mxCell>
        <mxCell id="VUf-AXKMQu4PL6Nq-AgI-4" value="&lt;font face=&quot;HarmonyOS Sans&quot; style=&quot;font-size: 16px;&quot;&gt;{&lt;/font&gt;" style="rounded=0;whiteSpace=wrap;html=1;strokeWidth=2;fillWeight=4;hachureGap=8;hachureAngle=45;fillColor=#f8cecc;strokeColor=#b85450;" vertex="1" parent="1">
          <mxGeometry x="280" width="40" height="40" as="geometry" />
        </mxCell>
        <mxCell id="VUf-AXKMQu4PL6Nq-AgI-5" value="&lt;font face=&quot;HarmonyOS Sans&quot; style=&quot;font-size: 16px;&quot;&gt;}&lt;/font&gt;" style="rounded=0;whiteSpace=wrap;html=1;strokeWidth=2;fillWeight=4;hachureGap=8;hachureAngle=45;fillColor=#dae8fc;strokeColor=#6c8ebf;" vertex="1" parent="1">
          <mxGeometry x="320" width="40" height="40" as="geometry" />
        </mxCell>
        <mxCell id="VUf-AXKMQu4PL6Nq-AgI-6" value="&lt;font face=&quot;HarmonyOS Sans&quot; style=&quot;font-size: 16px;&quot;&gt;[&lt;/font&gt;" style="rounded=0;whiteSpace=wrap;html=1;strokeWidth=2;fillWeight=4;hachureGap=8;hachureAngle=45;fillColor=#dae8fc;strokeColor=#6c8ebf;" vertex="1" parent="1">
          <mxGeometry x="360" width="40" height="40" as="geometry" />
        </mxCell>
        <mxCell id="VUf-AXKMQu4PL6Nq-AgI-7" value="&lt;font face=&quot;HarmonyOS Sans&quot; style=&quot;font-size: 16px;&quot;&gt;]&lt;/font&gt;" style="rounded=0;whiteSpace=wrap;html=1;strokeWidth=2;fillWeight=4;hachureGap=8;hachureAngle=45;fillColor=#dae8fc;strokeColor=#6c8ebf;" vertex="1" parent="1">
          <mxGeometry x="400" width="40" height="40" as="geometry" />
        </mxCell>
        <mxCell id="VUf-AXKMQu4PL6Nq-AgI-9" value="&lt;font style=&quot;font-size: 16px;&quot;&gt;&lt;b&gt;stack&lt;/b&gt;&lt;/font&gt;" style="text;html=1;align=center;verticalAlign=middle;whiteSpace=wrap;rounded=0;fontSize=16;textShadow=1;aspect=fixed;fontFamily=HarmonyOS Sans;" vertex="1" parent="1">
          <mxGeometry x="75" y="80" width="125" height="50" as="geometry" />
        </mxCell>
        <mxCell id="VUf-AXKMQu4PL6Nq-AgI-10" value="&lt;font face=&quot;HarmonyOS Sans&quot; style=&quot;font-size: 16px;&quot;&gt;{&lt;/font&gt;" style="rounded=0;whiteSpace=wrap;html=1;strokeWidth=2;fillWeight=4;hachureGap=8;hachureAngle=45;fillColor=#f5f5f5;strokeColor=#666666;fontColor=#333333;" vertex="1" parent="1">
          <mxGeometry x="200" y="85" width="40" height="40" as="geometry" />
        </mxCell>
        <mxCell id="VUf-AXKMQu4PL6Nq-AgI-11" value="" style="rounded=0;whiteSpace=wrap;html=1;strokeWidth=2;fillWeight=4;hachureGap=8;hachureAngle=45;fillColor=none;strokeColor=#6c8ebf;" vertex="1" parent="1">
          <mxGeometry x="240" y="85" width="40" height="40" as="geometry" />
        </mxCell>
        <mxCell id="VUf-AXKMQu4PL6Nq-AgI-12" value="" style="rounded=0;whiteSpace=wrap;html=1;strokeWidth=2;fillWeight=4;hachureGap=8;hachureAngle=45;fillColor=none;strokeColor=#6c8ebf;" vertex="1" parent="1">
          <mxGeometry x="280" y="85" width="40" height="40" as="geometry" />
        </mxCell>
        <mxCell id="VUf-AXKMQu4PL6Nq-AgI-13" value="" style="rounded=0;whiteSpace=wrap;html=1;strokeWidth=2;fillWeight=4;hachureGap=8;hachureAngle=45;fillColor=none;strokeColor=#6c8ebf;" vertex="1" parent="1">
          <mxGeometry x="320" y="85" width="40" height="40" as="geometry" />
        </mxCell>
        <mxCell id="VUf-AXKMQu4PL6Nq-AgI-14" value="" style="rounded=0;whiteSpace=wrap;html=1;strokeWidth=2;fillWeight=4;hachureGap=8;hachureAngle=45;fillColor=none;strokeColor=#6c8ebf;" vertex="1" parent="1">
          <mxGeometry x="360" y="85" width="40" height="40" as="geometry" />
        </mxCell>
        <mxCell id="VUf-AXKMQu4PL6Nq-AgI-15" value="" style="rounded=0;whiteSpace=wrap;html=1;strokeWidth=2;fillWeight=4;hachureGap=8;hachureAngle=45;fillColor=none;strokeColor=#6c8ebf;" vertex="1" parent="1">
          <mxGeometry x="400" y="85" width="40" height="40" as="geometry" />
        </mxCell>
        <mxCell id="VUf-AXKMQu4PL6Nq-AgI-16" value="" style="endArrow=classic;html=1;rounded=0;strokeWidth=2;entryX=0.5;entryY=0;entryDx=0;entryDy=0;strokeColor=#FF8000;" edge="1" parent="1">
          <mxGeometry width="50" height="50" relative="1" as="geometry">
            <mxPoint x="300" y="-50" as="sourcePoint" />
            <mxPoint x="300" as="targetPoint" />
          </mxGeometry>
        </mxCell>
      </root>
    </mxGraphModel>
  </diagram>
  <diagram id="XjsHrNSXlotOpZixJJXA" name="Page-4">
    <mxGraphModel dx="1050" dy="1691" grid="1" gridSize="10" guides="1" tooltips="1" connect="1" arrows="1" fold="1" page="1" pageScale="1" pageWidth="827" pageHeight="1169" math="0" shadow="0">
      <root>
        <mxCell id="0" />
        <mxCell id="1" parent="0" />
        <mxCell id="LfKEJYov23GVgYTHL0Q4-1" value="&lt;font style=&quot;font-size: 16px;&quot;&gt;&lt;b&gt;s&lt;/b&gt;&lt;/font&gt;" style="text;html=1;align=center;verticalAlign=middle;whiteSpace=wrap;rounded=0;fontSize=16;textShadow=1;aspect=fixed;fontFamily=HarmonyOS Sans;" vertex="1" parent="1">
          <mxGeometry x="75" y="-5" width="125" height="50" as="geometry" />
        </mxCell>
        <mxCell id="LfKEJYov23GVgYTHL0Q4-2" value="&lt;font face=&quot;HarmonyOS Sans&quot; style=&quot;font-size: 16px;&quot;&gt;(&lt;/font&gt;" style="rounded=0;whiteSpace=wrap;html=1;strokeWidth=2;fillWeight=4;hachureGap=8;hachureAngle=45;fillColor=#dae8fc;strokeColor=#6c8ebf;" vertex="1" parent="1">
          <mxGeometry x="200" width="40" height="40" as="geometry" />
        </mxCell>
        <mxCell id="LfKEJYov23GVgYTHL0Q4-3" value="&lt;span style=&quot;font-size: 16px;&quot;&gt;&lt;font face=&quot;HarmonyOS Sans&quot;&gt;)&lt;/font&gt;&lt;/span&gt;" style="rounded=0;whiteSpace=wrap;html=1;strokeWidth=2;fillWeight=4;hachureGap=8;hachureAngle=45;fillColor=#dae8fc;strokeColor=#6c8ebf;" vertex="1" parent="1">
          <mxGeometry x="240" width="40" height="40" as="geometry" />
        </mxCell>
        <mxCell id="LfKEJYov23GVgYTHL0Q4-4" value="&lt;font face=&quot;HarmonyOS Sans&quot; style=&quot;font-size: 16px;&quot;&gt;{&lt;/font&gt;" style="rounded=0;whiteSpace=wrap;html=1;strokeWidth=2;fillWeight=4;hachureGap=8;hachureAngle=45;fillColor=#dae8fc;strokeColor=#6c8ebf;" vertex="1" parent="1">
          <mxGeometry x="280" width="40" height="40" as="geometry" />
        </mxCell>
        <mxCell id="LfKEJYov23GVgYTHL0Q4-5" value="&lt;font face=&quot;HarmonyOS Sans&quot; style=&quot;font-size: 16px;&quot;&gt;}&lt;/font&gt;" style="rounded=0;whiteSpace=wrap;html=1;strokeWidth=2;fillWeight=4;hachureGap=8;hachureAngle=45;fillColor=#f8cecc;strokeColor=#b85450;" vertex="1" parent="1">
          <mxGeometry x="320" width="40" height="40" as="geometry" />
        </mxCell>
        <mxCell id="LfKEJYov23GVgYTHL0Q4-6" value="&lt;font face=&quot;HarmonyOS Sans&quot; style=&quot;font-size: 16px;&quot;&gt;[&lt;/font&gt;" style="rounded=0;whiteSpace=wrap;html=1;strokeWidth=2;fillWeight=4;hachureGap=8;hachureAngle=45;fillColor=#dae8fc;strokeColor=#6c8ebf;" vertex="1" parent="1">
          <mxGeometry x="360" width="40" height="40" as="geometry" />
        </mxCell>
        <mxCell id="LfKEJYov23GVgYTHL0Q4-7" value="&lt;font face=&quot;HarmonyOS Sans&quot; style=&quot;font-size: 16px;&quot;&gt;]&lt;/font&gt;" style="rounded=0;whiteSpace=wrap;html=1;strokeWidth=2;fillWeight=4;hachureGap=8;hachureAngle=45;fillColor=#dae8fc;strokeColor=#6c8ebf;" vertex="1" parent="1">
          <mxGeometry x="400" width="40" height="40" as="geometry" />
        </mxCell>
        <mxCell id="LfKEJYov23GVgYTHL0Q4-9" value="&lt;font style=&quot;font-size: 16px;&quot;&gt;&lt;b&gt;stack&lt;/b&gt;&lt;/font&gt;" style="text;html=1;align=center;verticalAlign=middle;whiteSpace=wrap;rounded=0;fontSize=16;textShadow=1;aspect=fixed;fontFamily=HarmonyOS Sans;" vertex="1" parent="1">
          <mxGeometry x="75" y="80" width="125" height="50" as="geometry" />
        </mxCell>
        <mxCell id="LfKEJYov23GVgYTHL0Q4-10" value="" style="rounded=0;whiteSpace=wrap;html=1;strokeWidth=2;fillWeight=4;hachureGap=8;hachureAngle=45;fillColor=none;strokeColor=#6c8ebf;" vertex="1" parent="1">
          <mxGeometry x="200" y="85" width="40" height="40" as="geometry" />
        </mxCell>
        <mxCell id="LfKEJYov23GVgYTHL0Q4-11" value="" style="rounded=0;whiteSpace=wrap;html=1;strokeWidth=2;fillWeight=4;hachureGap=8;hachureAngle=45;fillColor=none;strokeColor=#6c8ebf;" vertex="1" parent="1">
          <mxGeometry x="240" y="85" width="40" height="40" as="geometry" />
        </mxCell>
        <mxCell id="LfKEJYov23GVgYTHL0Q4-12" value="" style="rounded=0;whiteSpace=wrap;html=1;strokeWidth=2;fillWeight=4;hachureGap=8;hachureAngle=45;fillColor=none;strokeColor=#6c8ebf;" vertex="1" parent="1">
          <mxGeometry x="280" y="85" width="40" height="40" as="geometry" />
        </mxCell>
        <mxCell id="LfKEJYov23GVgYTHL0Q4-13" value="" style="rounded=0;whiteSpace=wrap;html=1;strokeWidth=2;fillWeight=4;hachureGap=8;hachureAngle=45;fillColor=none;strokeColor=#6c8ebf;" vertex="1" parent="1">
          <mxGeometry x="320" y="85" width="40" height="40" as="geometry" />
        </mxCell>
        <mxCell id="LfKEJYov23GVgYTHL0Q4-14" value="" style="rounded=0;whiteSpace=wrap;html=1;strokeWidth=2;fillWeight=4;hachureGap=8;hachureAngle=45;fillColor=none;strokeColor=#6c8ebf;" vertex="1" parent="1">
          <mxGeometry x="360" y="85" width="40" height="40" as="geometry" />
        </mxCell>
        <mxCell id="LfKEJYov23GVgYTHL0Q4-15" value="" style="rounded=0;whiteSpace=wrap;html=1;strokeWidth=2;fillWeight=4;hachureGap=8;hachureAngle=45;fillColor=none;strokeColor=#6c8ebf;" vertex="1" parent="1">
          <mxGeometry x="400" y="85" width="40" height="40" as="geometry" />
        </mxCell>
        <mxCell id="LfKEJYov23GVgYTHL0Q4-16" value="" style="endArrow=classic;html=1;rounded=0;strokeWidth=2;entryX=0.5;entryY=0;entryDx=0;entryDy=0;strokeColor=#FF8000;" edge="1" parent="1">
          <mxGeometry width="50" height="50" relative="1" as="geometry">
            <mxPoint x="340" y="-50" as="sourcePoint" />
            <mxPoint x="340" as="targetPoint" />
          </mxGeometry>
        </mxCell>
        <mxCell id="LfKEJYov23GVgYTHL0Q4-17" value="&lt;font style=&quot;font-size: 16px;&quot; face=&quot;HarmonyOS Sans&quot;&gt;{&lt;/font&gt;" style="rounded=0;whiteSpace=wrap;html=1;strokeWidth=2;fillWeight=4;hachureGap=8;hachureAngle=45;fillColor=#d5e8d4;strokeColor=#82b366;" vertex="1" parent="1">
          <mxGeometry x="540" y="40" width="40" height="40" as="geometry" />
        </mxCell>
        <mxCell id="LfKEJYov23GVgYTHL0Q4-18" value="&lt;b&gt;✔️&lt;/b&gt;" style="text;html=1;align=center;verticalAlign=middle;whiteSpace=wrap;rounded=0;fontSize=16;textShadow=1;aspect=fixed;fontFamily=HarmonyOS Sans;" vertex="1" parent="1">
          <mxGeometry x="497.5" width="125" height="50" as="geometry" />
        </mxCell>
      </root>
    </mxGraphModel>
  </diagram>
  <diagram id="jUZUB-Z7VLjetuOHv7Iz" name="Page-5">
    <mxGraphModel dx="1050" dy="1691" grid="1" gridSize="10" guides="1" tooltips="1" connect="1" arrows="1" fold="1" page="1" pageScale="1" pageWidth="827" pageHeight="1169" math="0" shadow="0">
      <root>
        <mxCell id="0" />
        <mxCell id="1" parent="0" />
        <mxCell id="nSAoP09j3EGGlPhmCPWb-1" value="&lt;font style=&quot;font-size: 16px;&quot;&gt;&lt;b&gt;s&lt;/b&gt;&lt;/font&gt;" style="text;html=1;align=center;verticalAlign=middle;whiteSpace=wrap;rounded=0;fontSize=16;textShadow=1;aspect=fixed;fontFamily=HarmonyOS Sans;" vertex="1" parent="1">
          <mxGeometry x="75" y="-5" width="125" height="50" as="geometry" />
        </mxCell>
        <mxCell id="nSAoP09j3EGGlPhmCPWb-2" value="&lt;font face=&quot;HarmonyOS Sans&quot; style=&quot;font-size: 16px;&quot;&gt;(&lt;/font&gt;" style="rounded=0;whiteSpace=wrap;html=1;strokeWidth=2;fillWeight=4;hachureGap=8;hachureAngle=45;fillColor=#dae8fc;strokeColor=#6c8ebf;" vertex="1" parent="1">
          <mxGeometry x="200" width="40" height="40" as="geometry" />
        </mxCell>
        <mxCell id="nSAoP09j3EGGlPhmCPWb-3" value="&lt;span style=&quot;font-size: 16px;&quot;&gt;&lt;font face=&quot;HarmonyOS Sans&quot;&gt;)&lt;/font&gt;&lt;/span&gt;" style="rounded=0;whiteSpace=wrap;html=1;strokeWidth=2;fillWeight=4;hachureGap=8;hachureAngle=45;fillColor=#dae8fc;strokeColor=#6c8ebf;" vertex="1" parent="1">
          <mxGeometry x="240" width="40" height="40" as="geometry" />
        </mxCell>
        <mxCell id="nSAoP09j3EGGlPhmCPWb-4" value="&lt;font face=&quot;HarmonyOS Sans&quot; style=&quot;font-size: 16px;&quot;&gt;{&lt;/font&gt;" style="rounded=0;whiteSpace=wrap;html=1;strokeWidth=2;fillWeight=4;hachureGap=8;hachureAngle=45;fillColor=#dae8fc;strokeColor=#6c8ebf;" vertex="1" parent="1">
          <mxGeometry x="280" width="40" height="40" as="geometry" />
        </mxCell>
        <mxCell id="nSAoP09j3EGGlPhmCPWb-5" value="&lt;font face=&quot;HarmonyOS Sans&quot; style=&quot;font-size: 16px;&quot;&gt;}&lt;/font&gt;" style="rounded=0;whiteSpace=wrap;html=1;strokeWidth=2;fillWeight=4;hachureGap=8;hachureAngle=45;fillColor=#dae8fc;strokeColor=#6c8ebf;" vertex="1" parent="1">
          <mxGeometry x="320" width="40" height="40" as="geometry" />
        </mxCell>
        <mxCell id="nSAoP09j3EGGlPhmCPWb-6" value="&lt;font face=&quot;HarmonyOS Sans&quot; style=&quot;font-size: 16px;&quot;&gt;[&lt;/font&gt;" style="rounded=0;whiteSpace=wrap;html=1;strokeWidth=2;fillWeight=4;hachureGap=8;hachureAngle=45;fillColor=#dae8fc;strokeColor=#6c8ebf;" vertex="1" parent="1">
          <mxGeometry x="360" width="40" height="40" as="geometry" />
        </mxCell>
        <mxCell id="nSAoP09j3EGGlPhmCPWb-7" value="&lt;font face=&quot;HarmonyOS Sans&quot; style=&quot;font-size: 16px;&quot;&gt;]&lt;/font&gt;" style="rounded=0;whiteSpace=wrap;html=1;strokeWidth=2;fillWeight=4;hachureGap=8;hachureAngle=45;fillColor=#dae8fc;strokeColor=#6c8ebf;" vertex="1" parent="1">
          <mxGeometry x="400" width="40" height="40" as="geometry" />
        </mxCell>
        <mxCell id="nSAoP09j3EGGlPhmCPWb-8" value="&lt;font style=&quot;font-size: 16px;&quot;&gt;&lt;b&gt;stack&lt;/b&gt;&lt;/font&gt;" style="text;html=1;align=center;verticalAlign=middle;whiteSpace=wrap;rounded=0;fontSize=16;textShadow=1;aspect=fixed;fontFamily=HarmonyOS Sans;" vertex="1" parent="1">
          <mxGeometry x="75" y="80" width="125" height="50" as="geometry" />
        </mxCell>
        <mxCell id="nSAoP09j3EGGlPhmCPWb-9" value="&lt;font face=&quot;HarmonyOS Sans&quot; style=&quot;font-size: 16px;&quot;&gt;[&lt;/font&gt;" style="rounded=0;whiteSpace=wrap;html=1;strokeWidth=2;fillWeight=4;hachureGap=8;hachureAngle=45;fillColor=#f5f5f5;strokeColor=#666666;fontColor=#333333;" vertex="1" parent="1">
          <mxGeometry x="200" y="85" width="40" height="40" as="geometry" />
        </mxCell>
        <mxCell id="nSAoP09j3EGGlPhmCPWb-10" value="" style="rounded=0;whiteSpace=wrap;html=1;strokeWidth=2;fillWeight=4;hachureGap=8;hachureAngle=45;fillColor=none;strokeColor=#6c8ebf;" vertex="1" parent="1">
          <mxGeometry x="240" y="85" width="40" height="40" as="geometry" />
        </mxCell>
        <mxCell id="nSAoP09j3EGGlPhmCPWb-11" value="" style="rounded=0;whiteSpace=wrap;html=1;strokeWidth=2;fillWeight=4;hachureGap=8;hachureAngle=45;fillColor=none;strokeColor=#6c8ebf;" vertex="1" parent="1">
          <mxGeometry x="280" y="85" width="40" height="40" as="geometry" />
        </mxCell>
        <mxCell id="nSAoP09j3EGGlPhmCPWb-12" value="" style="rounded=0;whiteSpace=wrap;html=1;strokeWidth=2;fillWeight=4;hachureGap=8;hachureAngle=45;fillColor=none;strokeColor=#6c8ebf;" vertex="1" parent="1">
          <mxGeometry x="320" y="85" width="40" height="40" as="geometry" />
        </mxCell>
        <mxCell id="nSAoP09j3EGGlPhmCPWb-13" value="" style="rounded=0;whiteSpace=wrap;html=1;strokeWidth=2;fillWeight=4;hachureGap=8;hachureAngle=45;fillColor=none;strokeColor=#6c8ebf;" vertex="1" parent="1">
          <mxGeometry x="360" y="85" width="40" height="40" as="geometry" />
        </mxCell>
        <mxCell id="nSAoP09j3EGGlPhmCPWb-14" value="" style="rounded=0;whiteSpace=wrap;html=1;strokeWidth=2;fillWeight=4;hachureGap=8;hachureAngle=45;fillColor=none;strokeColor=#6c8ebf;" vertex="1" parent="1">
          <mxGeometry x="400" y="85" width="40" height="40" as="geometry" />
        </mxCell>
        <mxCell id="nSAoP09j3EGGlPhmCPWb-15" value="" style="endArrow=classic;html=1;rounded=0;strokeWidth=2;entryX=0.5;entryY=0;entryDx=0;entryDy=0;strokeColor=#FF8000;" edge="1" parent="1">
          <mxGeometry width="50" height="50" relative="1" as="geometry">
            <mxPoint x="380" y="-50" as="sourcePoint" />
            <mxPoint x="380" as="targetPoint" />
          </mxGeometry>
        </mxCell>
      </root>
    </mxGraphModel>
  </diagram>
  <diagram id="RcoHCpxOoBcyVg1D0EA3" name="Page-6">
    <mxGraphModel dx="1050" dy="1691" grid="1" gridSize="10" guides="1" tooltips="1" connect="1" arrows="1" fold="1" page="1" pageScale="1" pageWidth="827" pageHeight="1169" math="0" shadow="0">
      <root>
        <mxCell id="0" />
        <mxCell id="1" parent="0" />
        <mxCell id="eQSZ1g52WizdjuDssezS-1" value="&lt;font style=&quot;font-size: 16px;&quot;&gt;&lt;b&gt;s&lt;/b&gt;&lt;/font&gt;" style="text;html=1;align=center;verticalAlign=middle;whiteSpace=wrap;rounded=0;fontSize=16;textShadow=1;aspect=fixed;fontFamily=HarmonyOS Sans;" vertex="1" parent="1">
          <mxGeometry x="75" y="-5" width="125" height="50" as="geometry" />
        </mxCell>
        <mxCell id="eQSZ1g52WizdjuDssezS-2" value="&lt;font face=&quot;HarmonyOS Sans&quot; style=&quot;font-size: 16px;&quot;&gt;(&lt;/font&gt;" style="rounded=0;whiteSpace=wrap;html=1;strokeWidth=2;fillWeight=4;hachureGap=8;hachureAngle=45;fillColor=#dae8fc;strokeColor=#6c8ebf;" vertex="1" parent="1">
          <mxGeometry x="200" width="40" height="40" as="geometry" />
        </mxCell>
        <mxCell id="eQSZ1g52WizdjuDssezS-3" value="&lt;span style=&quot;font-size: 16px;&quot;&gt;&lt;font face=&quot;HarmonyOS Sans&quot;&gt;)&lt;/font&gt;&lt;/span&gt;" style="rounded=0;whiteSpace=wrap;html=1;strokeWidth=2;fillWeight=4;hachureGap=8;hachureAngle=45;fillColor=#dae8fc;strokeColor=#6c8ebf;" vertex="1" parent="1">
          <mxGeometry x="240" width="40" height="40" as="geometry" />
        </mxCell>
        <mxCell id="eQSZ1g52WizdjuDssezS-4" value="&lt;font face=&quot;HarmonyOS Sans&quot; style=&quot;font-size: 16px;&quot;&gt;{&lt;/font&gt;" style="rounded=0;whiteSpace=wrap;html=1;strokeWidth=2;fillWeight=4;hachureGap=8;hachureAngle=45;fillColor=#dae8fc;strokeColor=#6c8ebf;" vertex="1" parent="1">
          <mxGeometry x="280" width="40" height="40" as="geometry" />
        </mxCell>
        <mxCell id="eQSZ1g52WizdjuDssezS-5" value="&lt;font face=&quot;HarmonyOS Sans&quot; style=&quot;font-size: 16px;&quot;&gt;}&lt;/font&gt;" style="rounded=0;whiteSpace=wrap;html=1;strokeWidth=2;fillWeight=4;hachureGap=8;hachureAngle=45;fillColor=#dae8fc;strokeColor=#6c8ebf;" vertex="1" parent="1">
          <mxGeometry x="320" width="40" height="40" as="geometry" />
        </mxCell>
        <mxCell id="eQSZ1g52WizdjuDssezS-6" value="&lt;font face=&quot;HarmonyOS Sans&quot; style=&quot;font-size: 16px;&quot;&gt;[&lt;/font&gt;" style="rounded=0;whiteSpace=wrap;html=1;strokeWidth=2;fillWeight=4;hachureGap=8;hachureAngle=45;fillColor=#dae8fc;strokeColor=#6c8ebf;" vertex="1" parent="1">
          <mxGeometry x="360" width="40" height="40" as="geometry" />
        </mxCell>
        <mxCell id="eQSZ1g52WizdjuDssezS-7" value="&lt;font face=&quot;HarmonyOS Sans&quot; style=&quot;font-size: 16px;&quot;&gt;]&lt;/font&gt;" style="rounded=0;whiteSpace=wrap;html=1;strokeWidth=2;fillWeight=4;hachureGap=8;hachureAngle=45;fillColor=#f8cecc;strokeColor=#b85450;" vertex="1" parent="1">
          <mxGeometry x="400" width="40" height="40" as="geometry" />
        </mxCell>
        <mxCell id="eQSZ1g52WizdjuDssezS-8" value="&lt;font style=&quot;font-size: 16px;&quot;&gt;&lt;b&gt;stack&lt;/b&gt;&lt;/font&gt;" style="text;html=1;align=center;verticalAlign=middle;whiteSpace=wrap;rounded=0;fontSize=16;textShadow=1;aspect=fixed;fontFamily=HarmonyOS Sans;" vertex="1" parent="1">
          <mxGeometry x="75" y="80" width="125" height="50" as="geometry" />
        </mxCell>
        <mxCell id="eQSZ1g52WizdjuDssezS-9" value="" style="rounded=0;whiteSpace=wrap;html=1;strokeWidth=2;fillWeight=4;hachureGap=8;hachureAngle=45;fillColor=none;strokeColor=#6c8ebf;" vertex="1" parent="1">
          <mxGeometry x="200" y="85" width="40" height="40" as="geometry" />
        </mxCell>
        <mxCell id="eQSZ1g52WizdjuDssezS-10" value="" style="rounded=0;whiteSpace=wrap;html=1;strokeWidth=2;fillWeight=4;hachureGap=8;hachureAngle=45;fillColor=none;strokeColor=#6c8ebf;" vertex="1" parent="1">
          <mxGeometry x="240" y="85" width="40" height="40" as="geometry" />
        </mxCell>
        <mxCell id="eQSZ1g52WizdjuDssezS-11" value="" style="rounded=0;whiteSpace=wrap;html=1;strokeWidth=2;fillWeight=4;hachureGap=8;hachureAngle=45;fillColor=none;strokeColor=#6c8ebf;" vertex="1" parent="1">
          <mxGeometry x="280" y="85" width="40" height="40" as="geometry" />
        </mxCell>
        <mxCell id="eQSZ1g52WizdjuDssezS-12" value="" style="rounded=0;whiteSpace=wrap;html=1;strokeWidth=2;fillWeight=4;hachureGap=8;hachureAngle=45;fillColor=none;strokeColor=#6c8ebf;" vertex="1" parent="1">
          <mxGeometry x="320" y="85" width="40" height="40" as="geometry" />
        </mxCell>
        <mxCell id="eQSZ1g52WizdjuDssezS-13" value="" style="rounded=0;whiteSpace=wrap;html=1;strokeWidth=2;fillWeight=4;hachureGap=8;hachureAngle=45;fillColor=none;strokeColor=#6c8ebf;" vertex="1" parent="1">
          <mxGeometry x="360" y="85" width="40" height="40" as="geometry" />
        </mxCell>
        <mxCell id="eQSZ1g52WizdjuDssezS-14" value="" style="rounded=0;whiteSpace=wrap;html=1;strokeWidth=2;fillWeight=4;hachureGap=8;hachureAngle=45;fillColor=none;strokeColor=#6c8ebf;" vertex="1" parent="1">
          <mxGeometry x="400" y="85" width="40" height="40" as="geometry" />
        </mxCell>
        <mxCell id="eQSZ1g52WizdjuDssezS-15" value="" style="endArrow=classic;html=1;rounded=0;strokeWidth=2;entryX=0.5;entryY=0;entryDx=0;entryDy=0;strokeColor=#FF8000;" edge="1" parent="1">
          <mxGeometry width="50" height="50" relative="1" as="geometry">
            <mxPoint x="420" y="-50" as="sourcePoint" />
            <mxPoint x="420" as="targetPoint" />
          </mxGeometry>
        </mxCell>
        <mxCell id="eQSZ1g52WizdjuDssezS-16" value="&lt;font style=&quot;font-size: 16px;&quot; face=&quot;HarmonyOS Sans&quot;&gt;]&lt;/font&gt;" style="rounded=0;whiteSpace=wrap;html=1;strokeWidth=2;fillWeight=4;hachureGap=8;hachureAngle=45;fillColor=#d5e8d4;strokeColor=#82b366;" vertex="1" parent="1">
          <mxGeometry x="540" y="40" width="40" height="40" as="geometry" />
        </mxCell>
        <mxCell id="eQSZ1g52WizdjuDssezS-17" value="&lt;b&gt;✔️&lt;/b&gt;" style="text;html=1;align=center;verticalAlign=middle;whiteSpace=wrap;rounded=0;fontSize=16;textShadow=1;aspect=fixed;fontFamily=HarmonyOS Sans;" vertex="1" parent="1">
          <mxGeometry x="497.5" width="125" height="50" as="geometry" />
        </mxCell>
      </root>
    </mxGraphModel>
  </diagram>
</mxfile>
